#N canvas 514 309 573 609 10;
#X obj 96 323 ambi.sf.read.4~;
#X obj 97 490 ambi.gain.4~;
#X msg 97 297 open \$1;
#X obj 97 170 unpack s f;
#X obj 154 274 delay;
#X msg 154 219 stop \, bang;
#X text 177 172 <file> <duration>;
#X obj 181 248 - 500;
#X msg 283 351 duration \$1 \, gain -100;
#X obj 283 322 f 500;
#X obj 264 226 f 15;
#X msg 264 255 duration \$1 \, gain 0;
#X obj 154 195 t b f b;
#X obj 42 406 ambi.device.zoom2wxy~;
#X obj 75 567 outlet~;
#X obj 137 565 outlet~;
#X obj 203 563 outlet~;
#X obj 236 28 inlet;
#X msg 375 164 stop;
#X obj 349 140 t b b;
#X obj 235 66 route play stop fade_in fade_out;
#X obj 436 173 f 15;
#X obj 512 190 f 500;
#X obj 363 467 print inoui.player;
#X connect 0 0 13 0;
#X connect 0 1 13 1;
#X connect 0 2 13 2;
#X connect 0 3 13 3;
#X connect 1 0 14 0;
#X connect 1 1 15 0;
#X connect 1 2 16 0;
#X connect 2 0 0 0;
#X connect 2 0 23 0;
#X connect 3 0 2 0;
#X connect 3 1 12 0;
#X connect 4 0 9 0;
#X connect 5 0 4 0;
#X connect 5 0 23 0;
#X connect 7 0 4 1;
#X connect 8 0 1 4;
#X connect 8 0 23 0;
#X connect 9 0 8 0;
#X connect 10 0 11 0;
#X connect 11 0 1 4;
#X connect 11 0 23 0;
#X connect 12 0 5 0;
#X connect 12 1 7 0;
#X connect 12 2 10 0;
#X connect 13 0 1 0;
#X connect 13 1 1 1;
#X connect 13 2 1 2;
#X connect 17 0 20 0;
#X connect 18 0 4 0;
#X connect 19 0 9 0;
#X connect 19 1 18 0;
#X connect 20 0 3 0;
#X connect 20 1 19 0;
#X connect 20 2 21 0;
#X connect 20 3 22 0;
#X connect 21 0 10 1;
#X connect 22 0 9 1;
#X connect 22 0 7 1;
