#N canvas 2 49 450 300 10;
#X obj 187 113 inlet;
#X obj 174 154 t a b;
#X obj 147 277 outlet;
#X obj 242 286 outlet;
#X obj 281 130 f 0;
#X obj 324 133 + 1;
#X obj 189 242 spigot;
#X obj 272 246 spigot;
#X obj 239 206 == 0;
#X obj 310 208 == 1;
#X obj 326 157 % 2;
#X connect 0 0 1 0;
#X connect 1 0 6 0;
#X connect 1 0 7 0;
#X connect 1 1 4 0;
#X connect 4 0 5 0;
#X connect 4 0 8 0;
#X connect 4 0 9 0;
#X connect 5 0 10 0;
#X connect 6 0 2 0;
#X connect 7 0 3 0;
#X connect 8 0 6 1;
#X connect 9 0 7 1;
#X connect 10 0 4 1;
