#N canvas 151 129 1031 907 10;
#X obj 531 723 vsl 30 60 -100 0 0 0 empty empty empty 0 -9 0 10 -258113
-1 -1 4838 1;
#X floatatom 534 804 5 0 0 0 - - -;
#X obj 373 804 ambi.gain.4~;
#X obj 154 179 noise~;
#X obj 154 220 hip~ 110;
#X obj 154 199 lop~ 11000;
#X obj 154 240 *~ 0.125;
#X obj 503 614 loadbang;
#X obj 133 712 ambi.wxy2mono~;
#X obj 231 711 ambi.wxy2mono~;
#X obj 373 841 dac~ 1 2 3 4;
#X obj 327 712 ambi.wxy2mono~;
#X obj 425 711 ambi.wxy2mono~;
#X msg 463 659 angle 315;
#X text 372 864 FL \, FR \, RL \, RR;
#X msg 537 662 angle 45;
#X msg 606 663 angle 225;
#X msg 675 663 angle 135;
#X obj 753 254 tgl 100 0 empty empty DSP 17 7 0 10 -258113 -1 -1 0
1;
#X msg 753 362 \; pd dsp \$1;
#X msg 653 707 0;
#X msg 653 729 -3;
#X msg 653 749 -6;
#X msg 654 769 -12;
#X msg 654 792 -18;
#X msg 656 815 -24;
#X obj 773 687 loadbang;
#X msg 358 151 openpanel;
#X msg 501 227 loop \$1;
#X obj 501 208 tgl 15 0 empty empty empty 17 7 0 10 -262144 -1 -1 0
1;
#X msg 500 177 play;
#X msg 539 177 stop;
#X msg 586 180 autostart \$1;
#X obj 586 161 tgl 15 0 empty empty empty 17 7 0 10 -262144 -1 -1 0
1;
#X floatatom 438 311 12 0 0 0 - - -;
#X obj 584 368 hsl 127 8 0 1 0 0 empty empty empty -2 -8 0 10 -191407
-1 -1 0 1;
#X obj 683 307 bng 15 250 50 0 empty empty empty 17 7 0 10 -262144
-1 -1;
#X floatatom 626 337 12 0 0 0 - - -;
#X obj 437 334 / 1000;
#X floatatom 436 357 12 0 0 0 - - -;
#X text 519 311 ms;
#X text 516 359 seconds;
#X obj 581 271 route duration elapsed done;
#X obj 581 342 /;
#X obj 154 316 *~ 0;
#X obj 175 262 tgl 50 0 empty empty demux 17 7 0 10 -258113 -1 -1 0
1;
#X obj 410 432 tgl 50 0 empty empty demux 17 7 0 10 -258113 -1 -1 0
1;
#X obj 411 486 sel 1 0;
#X msg 410 509 0;
#X msg 462 508 -100;
#X msg 169 491 angle \$1;
#X floatatom 169 471 5 0 0 0 - - -;
#X obj 172 450 hsl 120 15 0 360 0 0 empty empty empty -2 -8 0 10 -260097
-1 -1 0 1;
#X text 209 471 Angle is in degrees.;
#X obj 95 527 ambi.mono2wxy~;
#X obj 133 657 ambi.gain.4~;
#X text 516 33 Use files with a sampling rate of 48000 Hz;
#X msg 613 67 open SONS/SR018-quad.wav;
#X msg 612 87 open SONS/SR019-quad.wav;
#X msg 615 106 open SONS/SR020-quad.wav;
#X msg 614 126 open SONS/SR021-quad.wav;
#X obj 257 604 ambi.rotate.wxy~;
#X msg 390 583 angle \$1;
#X floatatom 390 566 5 0 0 0 - - -;
#X obj 393 545 hsl 120 15 0 360 0 0 empty empty empty -2 -8 0 10 -260097
-1 -1 0 1;
#X text 430 566 Angle is in degrees.;
#X obj 279 551 ambi.gain.3~;
#X obj 215 378 lop~ 11000;
#X obj 285 377 lop~ 11000;
#X obj 352 377 lop~ 11000;
#X obj 601 447 vsl 15 128 100 24000 1 0 empty empty empty 0 -9 0 10
-4034 -1 -1 0 1;
#X floatatom 324 329 5 0 0 0 - - -;
#X obj 346 257 ambi.sf.read.4~;
#X connect 0 0 1 0;
#X connect 0 0 2 4;
#X connect 2 0 10 0;
#X connect 2 1 10 1;
#X connect 2 2 10 2;
#X connect 2 3 10 3;
#X connect 3 0 5 0;
#X connect 4 0 6 0;
#X connect 5 0 4 0;
#X connect 6 0 44 0;
#X connect 7 0 13 0;
#X connect 7 0 15 0;
#X connect 7 0 16 0;
#X connect 7 0 17 0;
#X connect 8 0 2 0;
#X connect 9 0 2 1;
#X connect 11 0 2 2;
#X connect 12 0 2 3;
#X connect 13 0 8 3;
#X connect 15 0 9 3;
#X connect 16 0 11 3;
#X connect 17 0 12 3;
#X connect 18 0 19 0;
#X connect 20 0 0 0;
#X connect 21 0 0 0;
#X connect 22 0 0 0;
#X connect 23 0 0 0;
#X connect 24 0 0 0;
#X connect 25 0 0 0;
#X connect 26 0 24 0;
#X connect 27 0 72 0;
#X connect 28 0 72 0;
#X connect 29 0 28 0;
#X connect 30 0 72 0;
#X connect 31 0 72 0;
#X connect 32 0 72 0;
#X connect 33 0 32 0;
#X connect 34 0 38 0;
#X connect 38 0 39 0;
#X connect 42 0 34 0;
#X connect 42 0 43 1;
#X connect 42 1 37 0;
#X connect 42 1 43 0;
#X connect 42 2 36 0;
#X connect 43 0 35 0;
#X connect 44 0 54 0;
#X connect 45 0 44 1;
#X connect 46 0 47 0;
#X connect 47 0 48 0;
#X connect 47 1 49 0;
#X connect 48 0 66 3;
#X connect 49 0 66 3;
#X connect 50 0 54 1;
#X connect 51 0 50 0;
#X connect 52 0 51 0;
#X connect 54 0 55 0;
#X connect 54 1 55 1;
#X connect 54 2 55 2;
#X connect 55 0 8 0;
#X connect 55 0 9 0;
#X connect 55 0 11 0;
#X connect 55 0 12 0;
#X connect 55 1 8 1;
#X connect 55 1 9 1;
#X connect 55 1 11 1;
#X connect 55 1 12 1;
#X connect 55 2 8 2;
#X connect 55 2 9 2;
#X connect 55 2 11 2;
#X connect 55 2 12 2;
#X connect 57 0 72 0;
#X connect 58 0 72 0;
#X connect 59 0 72 0;
#X connect 60 0 72 0;
#X connect 61 0 55 0;
#X connect 61 1 55 1;
#X connect 61 2 55 3;
#X connect 62 0 61 3;
#X connect 63 0 62 0;
#X connect 64 0 63 0;
#X connect 66 0 61 0;
#X connect 66 1 61 1;
#X connect 66 2 61 2;
#X connect 67 0 66 0;
#X connect 68 0 66 1;
#X connect 69 0 66 2;
#X connect 70 0 71 0;
#X connect 71 0 69 1;
#X connect 71 0 68 1;
#X connect 71 0 67 1;
#X connect 72 0 67 0;
#X connect 72 1 68 0;
#X connect 72 2 69 0;
#X connect 72 4 42 0;
