#N canvas 604 209 1187 640 10;
#X obj 89 87 print netreceive;
#X obj 30 122 list prepend set;
#X obj 30 144 list trim;
#X msg 30 165;
#X obj 30 29 netreceive 14444 1;
#X obj 255 363 ambi.wxy2mono~;
#X obj 265 396 dac~ 1 2;
#X obj 343 313 loadbang;
#X obj 419 359 ambi.wxy2mono~;
#X obj 507 309 loadbang;
#X msg 505 331 angle 270;
#X msg 340 335 angle 90;
#X obj 242 132 ambi.sf.read.4~;
#X obj 496 141 vsl 30 60 -100 0 0 0 empty empty empty 0 -9 0 10 -258113
-1 -1 0 1;
#X msg 243 48 open foo.wav;
#X obj 242 200 ambi.rotate.wxy~;
#X obj 242 225 ambi.gain.4~;
#X floatatom 658 399 12 0 0 0 - - -;
#X obj 804 456 hsl 127 8 0 1 0 0 empty empty empty -2 -8 0 10 -191407
-1 -1 0 1;
#X obj 903 395 bng 15 250 50 0 empty empty empty 17 7 0 10 -262144
-1 -1;
#X floatatom 846 425 12 0 0 0 - - -;
#X obj 657 422 / 1000;
#X floatatom 656 445 12 0 0 0 - - -;
#X text 739 399 ms;
#X text 736 447 seconds;
#X obj 801 359 route duration elapsed done;
#X obj 801 430 /;
#X connect 1 0 2 0;
#X connect 2 0 3 0;
#X connect 4 0 0 0;
#X connect 4 0 1 0;
#X connect 5 0 6 0;
#X connect 7 0 11 0;
#X connect 8 0 6 1;
#X connect 9 0 10 0;
#X connect 10 0 8 3;
#X connect 11 0 5 3;
#X connect 12 0 15 0;
#X connect 12 1 15 1;
#X connect 12 2 15 2;
#X connect 12 4 25 0;
#X connect 13 0 16 4;
#X connect 14 0 12 0;
#X connect 15 0 16 0;
#X connect 15 1 16 1;
#X connect 15 2 16 2;
#X connect 16 0 5 0;
#X connect 16 0 8 0;
#X connect 16 1 5 1;
#X connect 16 1 8 1;
#X connect 16 2 5 2;
#X connect 16 2 8 2;
#X connect 17 0 21 0;
#X connect 21 0 22 0;
#X connect 25 0 17 0;
#X connect 25 0 26 1;
#X connect 25 1 20 0;
#X connect 25 1 26 0;
#X connect 25 2 19 0;
#X connect 26 0 18 0;
