#N canvas -8 132 1187 640 10;
#X obj 52 205 print netreceive;
#X obj 30 224 list prepend set;
#X obj 30 246 list trim;
#X msg 30 267 play /home/aalex/SONS/SR021-quad.wav 120936;
#X obj 30 29 netreceive 14444 1;
#X obj 66 63 route play rotation;
#X obj 30 171 spigot;
#X obj 63 136 tgl 30 0 empty empty empty 17 7 0 10 -258113 -1 -1 0
1;
#X msg 572 238 fade_in 15 \, fade_out 500;
#X obj 579 210 loadbang;
#X obj 756 457 vsl 30 60 -100 0 0 0 empty empty empty 0 -9 0 10 -258113
-1 -1 4838 1;
#X floatatom 759 538 5 0 0 0 - - -;
#X obj 598 538 ambi.gain.4~;
#X obj 511 362 loadbang;
#X obj 358 446 ambi.wxy2mono~;
#X obj 456 445 ambi.wxy2mono~;
#X obj 598 575 dac~ 1 2 3 4;
#X obj 552 446 ambi.wxy2mono~;
#X obj 650 445 ambi.wxy2mono~;
#X msg 511 399 angle 315;
#X text 597 598 FL \, FR \, RL \, RR;
#X msg 585 402 angle 45;
#X msg 654 403 angle 225;
#X msg 723 403 angle 135;
#X msg 878 441 0;
#X msg 878 463 -3;
#X msg 878 483 -6;
#X msg 879 503 -12;
#X msg 879 526 -18;
#X msg 881 549 -24;
#X obj 923 494 loadbang;
#X obj 358 391 ambi.gain.4~;
#X obj 358 342 ambi.rotate.wxy~;
#X obj 843 146 tgl 100 0 empty empty DSP 17 7 0 10 -258113 -1 -1 1
1;
#X msg 843 254 \; pd dsp \$1;
#X obj 843 91 loadbang;
#X msg 843 118 1;
#X obj 359 132 inoui.alternate;
#X text 432 40 play <file> <duration>;
#X obj 361 161 t a b;
#X obj 443 158 t a b;
#X msg 472 181 stop;
#X msg 391 184 stop;
#X obj 357 275 inoui.player~;
#X obj 457 282 inoui.player~;
#X obj 357 87 list prepend play;
#X obj 357 110 list trim;
#X obj 609 79 bng 50 250 50 0 empty empty stop 17 7 0 10 -260097 -1
-1;
#X connect 1 0 2 0;
#X connect 2 0 3 0;
#X connect 4 0 5 0;
#X connect 4 0 6 0;
#X connect 5 0 45 0;
#X connect 5 1 32 3;
#X connect 6 0 0 0;
#X connect 6 0 1 0;
#X connect 7 0 6 1;
#X connect 8 0 43 0;
#X connect 8 0 44 0;
#X connect 9 0 8 0;
#X connect 10 0 11 0;
#X connect 10 0 12 4;
#X connect 12 0 16 0;
#X connect 12 1 16 1;
#X connect 12 2 16 2;
#X connect 12 3 16 3;
#X connect 13 0 19 0;
#X connect 13 0 21 0;
#X connect 13 0 22 0;
#X connect 13 0 23 0;
#X connect 14 0 12 0;
#X connect 15 0 12 1;
#X connect 17 0 12 2;
#X connect 18 0 12 3;
#X connect 19 0 14 3;
#X connect 21 0 15 3;
#X connect 22 0 17 3;
#X connect 23 0 18 3;
#X connect 24 0 10 0;
#X connect 25 0 10 0;
#X connect 26 0 10 0;
#X connect 27 0 10 0;
#X connect 28 0 10 0;
#X connect 29 0 10 0;
#X connect 30 0 28 0;
#X connect 31 0 14 0;
#X connect 31 0 15 0;
#X connect 31 0 17 0;
#X connect 31 0 18 0;
#X connect 31 1 14 1;
#X connect 31 1 15 1;
#X connect 31 1 17 1;
#X connect 31 1 18 1;
#X connect 31 2 14 2;
#X connect 31 2 15 2;
#X connect 31 2 17 2;
#X connect 31 2 18 2;
#X connect 32 0 31 0;
#X connect 32 1 31 1;
#X connect 32 2 31 3;
#X connect 33 0 34 0;
#X connect 35 0 36 0;
#X connect 36 0 33 0;
#X connect 37 0 39 0;
#X connect 37 1 40 0;
#X connect 39 0 43 0;
#X connect 39 1 42 0;
#X connect 40 0 44 0;
#X connect 40 1 41 0;
#X connect 41 0 43 0;
#X connect 42 0 44 0;
#X connect 43 0 32 0;
#X connect 43 1 32 1;
#X connect 43 2 32 2;
#X connect 44 0 32 0;
#X connect 44 1 32 1;
#X connect 44 2 32 2;
#X connect 45 0 46 0;
#X connect 46 0 37 0;
#X connect 47 0 41 0;
#X connect 47 0 42 0;
