#N canvas 128 133 788 635 10;
#X obj 65 193 print netreceive;
#X obj 43 212 list prepend set;
#X obj 43 234 list trim;
#X msg 43 255 angle 145.416;
#X obj 43 17 netreceive 14444 1;
#X obj 43 159 spigot;
#X obj 76 124 tgl 30 0 empty empty empty 17 7 0 10 -258113 -1 -1 0
1;
#X msg 320 253 fade_in 15 \, fade_out 500;
#X obj 327 225 loadbang;
#X obj 578 472 vsl 30 60 -100 0 0 0 empty empty empty 0 -9 0 10 -258113
-1 -1 5546 1;
#X floatatom 581 553 5 0 0 0 - - -;
#X obj 479 535 ambi.gain.4~;
#X obj 392 359 loadbang;
#X obj 239 443 ambi.wxy2mono~;
#X obj 337 442 ambi.wxy2mono~;
#X obj 479 572 dac~ 1 2 3 4;
#X obj 433 443 ambi.wxy2mono~;
#X obj 531 442 ambi.wxy2mono~;
#X msg 392 396 angle 315;
#X text 478 595 FL \, FR \, RL \, RR;
#X msg 466 399 angle 45;
#X msg 532 400 angle 225;
#X msg 609 400 angle 135;
#X msg 642 444 0;
#X msg 642 466 -3;
#X msg 642 486 -6;
#X msg 643 506 -12;
#X msg 643 529 -18;
#X msg 645 552 -24;
#X obj 642 425 loadbang;
#X obj 239 388 ambi.gain.4~;
#X obj 239 339 ambi.rotate.wxy~;
#X obj 666 154 tgl 100 0 empty empty DSP 17 7 0 10 -258113 -1 -1 1
1;
#X msg 666 262 \; pd dsp \$1;
#X obj 666 99 loadbang;
#X msg 666 126 1;
#X obj 240 129 inoui.alternate;
#X text 313 37 play <file> <duration>;
#X obj 242 158 t a b;
#X obj 324 155 t a b;
#X msg 353 178 stop;
#X msg 272 181 stop;
#X obj 238 272 inoui.player~;
#X obj 238 84 list prepend play;
#X obj 238 107 list trim;
#X obj 354 87 bng 50 250 50 0 empty empty stop 17 7 0 10 -260097 -1
-1;
#X obj 143 140 print rotation;
#X obj 79 51 route play angle;
#X obj 338 279 inoui.player~;
#X obj 500 105 noise~;
#X obj 503 136 hip~ 440;
#X obj 502 167 lop~ 4440;
#X obj 503 195 *~ 0.125;
#X obj 501 223 ambi.mono2wxy~;
#X msg 530 56 angle \$1;
#X floatatom 530 36 5 0 0 0 - - -;
#X obj 533 15 hsl 120 15 0 360 0 0 empty empty empty -2 -8 0 10 -260097
-1 -1 5500 1;
#X text 570 36 Angle is in degrees.;
#X obj 502 281 ambi.gain.4~;
#X floatatom 597 228 5 0 0 0 - - -;
#X msg 597 248 gain \$1;
#X obj 597 92 vsl 15 128 -100 6 0 0 empty empty empty 0 -9 0 10 -258113
-1 -1 0 1;
#X obj 597 52 loadbang;
#X msg 597 71 -100;
#X obj 122 163 list prepend angle;
#X obj 167 191 list trim;
#X obj 377 303 loadbang;
#X msg 370 331 duration 250;
#X msg 265 7 play /home/labomedia/src/444.wav 30000;
#X connect 1 0 2 0;
#X connect 2 0 3 0;
#X connect 4 0 5 0;
#X connect 4 0 47 0;
#X connect 5 0 0 0;
#X connect 5 0 1 0;
#X connect 6 0 5 1;
#X connect 7 0 42 0;
#X connect 7 0 48 0;
#X connect 8 0 7 0;
#X connect 9 0 10 0;
#X connect 9 0 11 4;
#X connect 11 0 15 0;
#X connect 11 1 15 1;
#X connect 11 2 15 2;
#X connect 11 3 15 3;
#X connect 12 0 18 0;
#X connect 12 0 20 0;
#X connect 12 0 21 0;
#X connect 12 0 22 0;
#X connect 13 0 11 0;
#X connect 14 0 11 1;
#X connect 16 0 11 2;
#X connect 17 0 11 3;
#X connect 18 0 13 3;
#X connect 20 0 14 3;
#X connect 21 0 16 3;
#X connect 22 0 17 3;
#X connect 23 0 9 0;
#X connect 24 0 9 0;
#X connect 25 0 9 0;
#X connect 26 0 9 0;
#X connect 27 0 9 0;
#X connect 28 0 9 0;
#X connect 29 0 23 0;
#X connect 30 0 13 0;
#X connect 30 0 14 0;
#X connect 30 0 16 0;
#X connect 30 0 17 0;
#X connect 30 1 13 1;
#X connect 30 1 14 1;
#X connect 30 1 16 1;
#X connect 30 1 17 1;
#X connect 30 2 13 2;
#X connect 30 2 14 2;
#X connect 30 2 16 2;
#X connect 30 2 17 2;
#X connect 31 0 30 0;
#X connect 31 1 30 1;
#X connect 31 2 30 3;
#X connect 32 0 33 0;
#X connect 34 0 35 0;
#X connect 35 0 32 0;
#X connect 36 0 38 0;
#X connect 36 1 39 0;
#X connect 38 0 42 0;
#X connect 38 1 41 0;
#X connect 39 0 48 0;
#X connect 39 1 40 0;
#X connect 40 0 42 0;
#X connect 41 0 48 0;
#X connect 42 0 31 0;
#X connect 42 1 31 1;
#X connect 42 2 31 2;
#X connect 43 0 44 0;
#X connect 44 0 36 0;
#X connect 45 0 40 0;
#X connect 45 0 41 0;
#X connect 47 0 43 0;
#X connect 47 1 46 0;
#X connect 47 1 64 0;
#X connect 48 0 31 0;
#X connect 48 1 31 1;
#X connect 48 2 31 2;
#X connect 49 0 50 0;
#X connect 50 0 51 0;
#X connect 51 0 52 0;
#X connect 52 0 53 0;
#X connect 53 0 58 0;
#X connect 53 1 58 1;
#X connect 53 2 58 2;
#X connect 54 0 53 1;
#X connect 55 0 54 0;
#X connect 56 0 55 0;
#X connect 58 0 31 0;
#X connect 58 1 31 1;
#X connect 58 2 31 2;
#X connect 59 0 60 0;
#X connect 60 0 58 4;
#X connect 61 0 59 0;
#X connect 62 0 63 0;
#X connect 63 0 61 0;
#X connect 64 0 65 0;
#X connect 65 0 31 3;
#X connect 66 0 67 0;
#X connect 67 0 31 3;
#X connect 68 0 36 0;
